<svg version="1.1" id="obxd_xA0_Image_1_" xmlns="http://www.w3.org/2000/svg" xmlns:xlink="http://www.w3.org/1999/xlink" x="0px"
	 y="0px" width="549px" height="159px" viewBox="0 0 549 159" enable-background="new 0 0 549 159" xml:space="preserve">
<g>
	<path fill-rule="evenodd" clip-rule="evenodd" fill="#FFFFFF" d="M471.52,9.922c10.724,0,20.193,0.372,29.619-0.104
		c9.339-0.472,18.634-1.799,28.892-2.847c0,3.382-0.018,7.534,0.005,11.687c0.023,4.288,0.087,8.576,0.13,12.864
		c0.007,0.665,0.025,1.332-0.003,1.996c-0.346,8.115-0.871,16.229-0.984,24.348c-0.065,4.787,0.806,9.587,0.748,14.374
		c-0.092,7.674-0.626,15.342-0.927,23.014c-0.075,1.927,0.009,3.861,0.05,5.792c0.207,9.643-0.469,19.425,0.996,28.874
		c0.789,5.094,5.18,9.662,8.091,14.379c1.189,1.928,2.763,3.619,4.849,6.304c-8.158,0-15.493-0.002-22.828,0
		c-9.063,0.003-18.124,0.008-27.187,0.013c-0.5,0.001-1,0.023-1.499,0.024c-7.215,0.017-7.215,0.017-8.171-7.206
		c-0.947,1.041-2.017,1.714-2.328,2.642c-2.208,6.574-7.793,7.771-13.313,7.288c-5.778-0.505-11.421-2.563-17.123-3.944
		c-0.935-0.227-1.937-0.807-2.79-0.637c-17.672,3.512-35.551,0.626-53.288,1.816c-3.404,0.229-5.18-0.936-6.892-4.104
		c-7.08-13.1-14.621-25.949-22.553-39.876c-3.954,5.741-7.521,10.903-11.069,16.078c-1.087,1.586-2.103,3.222-3.192,4.806
		c-2.423,3.521-1.343,10.346,2.313,15.092c1.502,1.948,2.851,4.018,4.204,6.075c0.231,0.352,0.132,0.92,0.226,1.743
		c-20.032,0-39.917,0-60.269,0c2.504-4.088,4.706-7.962,7.176-11.657c4.174-6.245,8.517-12.376,12.787-18.556
		c8.85-12.804,17.288-25.925,26.776-38.236c3.188-4.139,2.025-5.968-0.018-9.461c-5.218-8.92-9.244-18.588-14.938-27.166
		c-7.706-11.612-14.812-24.008-27.672-31.177c-1.289-0.718-2.233-2.053-3.338-3.102c0.159-0.499,0.318-0.997,0.477-1.496
		c2.042,0,4.103-0.177,6.123,0.031c7.911,0.815,15.824-1.139,23.888,1.415c4.389,1.39,9.85-0.781,14.843-1.071
		c5.116-0.298,10.264-0.092,15.376-0.428c3.79-0.248,5.198,2.144,6.68,4.872c5.546,10.21,11.167,20.38,17.241,31.442
		c3.156-4.098,5.953-7.582,8.587-11.186c3.56-4.87,4.729-9.608,0.079-14.816c-2.111-2.363-3.045-5.778-4.911-9.515
		c19.611,0,38.728,0,59.077,0c-4.79,6.578-9.127,12.385-13.302,18.306c-4.525,6.418-8.885,12.953-13.344,19.418
		c-4.714,6.836-9.351,13.729-14.233,20.443c-2.727,3.75-5.014,7.122-1.846,11.895c4.586,6.907,8.763,14.086,13.167,21.115
		c0.415,0.663,1.203,1.092,1.94,1.735c0.871-4.682,2.279-9.181,2.445-13.725c0.49-13.436,7.726-23.353,16.928-31.769
		c5.912-5.406,13.058-9.766,21.528-10.546c7.071-0.651,14.189-1.835,21.176,0.673c0.771,0.277,1.578,0.477,2.384,0.625
		c0.287,0.053,0.621-0.149,0.933-0.237c0.373-6.098,1.261-12.225,0.891-18.273c-0.172-2.802-2.656-5.544-4.343-8.151
		C477.402,18.132,474.788,14.599,471.52,9.922z M529.833,144.364c-0.24-1.493,0.044-3.627-0.779-4.218
		c-5.799-4.158-5.284-10.459-5.319-16.179c-0.212-34.619-0.105-69.24-0.105-103.86c0-1.885,0-3.77,0-4.617
		c-13.431,0.545-26.059,1.057-38.237,1.551c1.314,4.788,2.785,9.619,3.922,14.528c0.511,2.209,0.462,4.571,0.482,6.865
		c0.057,6.667,0.02,13.335,0.02,19.679c-5.483-1.864-10.156-3.822-15.016-5.035c-14.91-3.72-34.717,4.684-42.002,18.028
		c-6.68,12.235-10.781,25.2-6.902,39.267c1.697,6.155,3.585,12.522,6.819,17.937c7.965,13.33,20.6,18.958,35.832,19.077
		c1.716,0.014,3.961-0.409,5.065-1.521c4.313-4.341,6.819-9.724,8.181-15.975c-7.636-1.551-12.812-5.194-16.101-12.155
		c-6.207-13.131-5.612-25.96,0.42-38.71c2.503-5.29,8.081-8.041,12.381-7.094c6.364,1.402,10.741,5.897,11.123,12.164
		c0.281,4.621-0.213,9.285-0.189,13.929c0.013,2.625,0.579,5.251,0.536,7.87c-0.124,7.612-0.486,15.22-0.643,22.831
		c-0.105,5.095-0.021,10.193-0.021,15.638C503.305,144.364,516.375,144.364,529.833,144.364z M315.69,16.603
		c3.133,3.801,5.773,6.31,7.573,9.321c5.13,8.578,9.801,17.43,14.875,26.043c4.165,7.069,8.471,14.072,13.062,20.868
		c2.548,3.771,1.966,6.545-0.632,10.014c-6.479,8.652-12.614,17.565-18.801,26.435c-4.651,6.67-9.125,13.463-13.757,20.146
		c-3.271,4.72-6.673,9.347-10.652,14.903c14.034,0,26.467,0,39.059,0c0-0.92,0.331-1.962-0.05-2.49
		c-5.641-7.835-2.339-14.542,2.268-21.353c5.607-8.291,10.884-16.806,16.586-25.662c4.582,8.332,8.793,16.018,13.031,23.688
		c4.47,8.088,8.899,16.198,13.527,24.193c0.609,1.053,2.288,2.091,3.483,2.104c12.932,0.15,25.865,0.094,40.329,0.094
		c-14.604-23.839-28.5-46.521-42.645-69.61c13.144-19.053,26.428-38.31,40.293-58.408c-12.696,0-24.034,0-36.035,0
		c0.831,1.958,1.87,3.387,1.984,4.886c0.267,3.491,1.349,7.719-0.144,10.398c-4.841,8.689-10.692,16.815-16.385,25.51
		c-1.592-2.244-2.8-3.636-3.664-5.216c-5.797-10.601-11.421-21.298-17.368-31.813c-0.979-1.731-3.246-3.832-4.964-3.874
		C343.52,16.457,330.362,16.603,315.69,16.603z M483.625,123.281c0-12.705-0.057-25.157,0.033-37.607
		c0.029-4.018-1.615-6.735-5.559-7.338c-3.913-0.599-6.85,1.288-8.014,5.126c-3,9.888-3.564,19.943-0.519,29.872
		C471.266,118.869,474.916,124.293,483.625,123.281z"/>
	<path fill-rule="evenodd" clip-rule="evenodd" fill="#FFFFFF" d="M143.249,149.89c10.561-10.746,16.816-21.598,12.304-36.199
		c-2.917,4.025-5.689,8.347-8.95,12.261c-10.268,12.323-22.848,20.462-38.881,24.191c-8.899,2.069-17.588,3.7-26.6,3.369
		c-17.462-0.642-33.771-5.68-47.312-16.669c-9.269-7.523-16.741-17.178-20.874-28.811C7.233,91.98,6.118,75.544,10.832,59.203
		c4.497-15.591,13.867-27.897,27.243-37.477c9.186-6.579,19.224-10.663,30.011-12.746c6.493-1.254,13.345-0.975,20.025-0.848
		c6.764,0.128,13.602,0.404,20.253,1.524c13.981,2.354,25.49,9.777,35.267,19.648c4.359,4.401,7.48,10.029,11.473,15.525
		c5.724-14.869-4.91-23.866-11.44-34.78c2.102-0.225,3.34-0.471,4.579-0.472c22.329-0.023,44.662-0.266,66.985,0.074
		c13.893,0.211,26.896,4.47,35.414,15.815c9.525,12.688,10.508,29.849-1.767,42.403c-0.772,0.79-1.518,1.605-2.25,2.381
		c3.774,3.77,8.188,6.905,10.904,11.132c7.72,12.008,9.75,24.361,4.962,38.859c-4.228,12.799-12.821,19.917-23.366,25.606
		c-9.543,5.148-20.354,4.927-31.005,4.619c-5.905-0.172-11.83,0.422-17.743,0.372c-6.644-0.057-13.283-0.572-19.927-0.647
		c-3.519-0.04-7.047,0.666-10.564,0.613C154.815,150.731,149.751,150.271,143.249,149.89z M88.846,146.311
		c0.038,0.315,0.076,0.631,0.113,0.945c5.699-0.905,11.473-1.483,17.082-2.776c18.627-4.296,33.009-14.864,42.293-31.418
		c8.482-15.123,9.368-31.935,6.251-48.565c-1.479-7.892-5.123-15.669-9.153-22.717c-5.396-9.436-13.855-16.781-23.714-20.792
		c-18.971-7.717-38.79-9.236-58.822-3.453c-2.744,0.791-6.306,0.075-8.396,1.577C43.69,26.879,30.76,32.357,24.503,45.31
		c-2.426,5.021-5.25,9.982-6.749,15.295c-3.143,11.137-4.548,22.663-1.935,34.068c1.753,7.646,3.465,15.974,7.8,22.177
		c4.713,6.745,9.813,14.101,18.095,17.763c8.494,3.755,16.557,8.922,25.392,11.331C73.882,147.79,81.565,146.311,88.846,146.311z
		 M157.397,144.541c20.693,0,41.188,0.407,61.652-0.176c9.942-0.283,19.767-2.874,27.467-9.896
		c9.076-8.277,12.92-18.539,12.279-31.069c-0.733-14.332-8.735-25.788-22.499-29.834c-1.497-0.44-2.978-0.939-5.449-1.724
		c2.532-1.115,4.111-1.926,5.768-2.52c6.074-2.181,10.237-6.712,12.358-12.349c3.402-9.038,2.846-18.305-2.683-26.508
		c-6.609-9.806-17.383-12.902-28.059-14.281c-9.081-1.173-18.485,0.263-27.749,0.354c-11.498,0.111-22.998,0.026-34.791,0.026
		c0.32,0.642,0.576,1.189,0.862,1.721c2.021,3.757,4.722,7.317,5.871,11.324c0.988,3.446,0.211,7.4,0.213,11.13
		c0.008,16.071,0.067,32.143-0.003,48.213c-0.025,5.749-0.529,11.496-0.528,17.243c0.004,12.066,3.628,24.534-4.266,35.671
		C157.422,142.459,157.562,143.449,157.397,144.541z"/>
	<path fill-rule="evenodd" clip-rule="evenodd" fill="#FFFFFF" d="M332.542,68.609c-3.808,5.706-7.341,10.75-10.608,15.96
		c-3.744,5.971-8.011,9.766-16.036,9.199c-11.521-0.813-23.144-0.207-36.187-0.207c3.931-6.198,7.035-11.456,10.518-16.45
		c2.162-3.102,4.79-5.909,7.448-8.613c0.74-0.754,2.329-0.929,3.531-0.936c11.624-0.066,23.248-0.093,34.871,0.005
		C328.173,67.585,330.261,68.225,332.542,68.609z M322.575,74.284c-2.526-0.616-3.98-1.257-5.443-1.278
		c-6.669-0.1-13.343-0.143-20.009,0.044c-2.712,0.076-6.431-0.167-7.896,1.406c-3.089,3.317-4.994,7.738-7.626,12.106
		c7.28,0,13.771-0.599,20.103,0.151c7.953,0.941,14.323,0.09,17.359-8.516C319.452,77.092,320.725,76.297,322.575,74.284z"/>
	<path fill-rule="evenodd" clip-rule="evenodd" fill="#FFFFFF" d="M119.629,85.787c0.653,13.793-3.887,25.522-13.512,35.485
		c-6.558,6.788-23.053,8.725-32.124,3.787c-12.419-6.76-18.043-17.969-20.932-30.969c-2.792-12.564-3.045-25.253,1.112-37.549
		c4.459-13.186,14.845-24.595,30.373-23.898c12.39,0.556,21.056,7.443,26.703,18.096C117.035,61.651,120.193,73.303,119.629,85.787z
		 M114.391,85.649c-0.476-0.144-0.952-0.287-1.428-0.431c-0.047-12.367-2.47-24.128-9.428-34.569
		c-9.573-14.366-29.767-15.172-39.36,0.302c-4.883,7.875-6.269,16.536-6.309,25.125c-0.05,10.764,1.595,21.535,6.774,31.451
		c4.153,7.951,10.545,13.155,19.136,14.094c10.015,1.094,19.093-2.497,23.436-12.153C110.585,101.97,112.068,93.62,114.391,85.649z"
		/>
	<path fill-rule="evenodd" clip-rule="evenodd" fill="#FFFFFF" d="M197.817,82.934c7.381-1.447,14.161,0.285,20.268,4.305
		c1.911,1.259,3.752,3.533,4.362,5.699c2.551,9.051,3.597,17.997-2.309,26.551c-5.34,7.735-13.734,9.204-21.93,5.295
		c-0.655-0.313-1.141-1.682-1.142-2.56c-0.019-12.636,0.054-25.271,0.142-37.907C197.212,83.867,197.595,83.42,197.817,82.934z
		 M203.695,120.453c6.029,0.743,11.041-0.399,12.566-6.802c1.004-4.215,0.988-8.675,1.414-13.026
		c0.699-7.141-6.806-12.795-13.98-10.279C203.695,100.188,203.695,110.115,203.695,120.453z"/>
	<path fill-rule="evenodd" clip-rule="evenodd" fill="#FFFFFF" d="M197.062,34.957c16.197-1.479,24.439,8.896,18.952,22.413
		c-2.333,5.749-9.741,10.33-15.754,9.446c-1.158-0.17-3.041-1.54-3.06-2.391C196.982,54.659,197.062,44.886,197.062,34.957z
		 M203.666,40.846c0,4.983-0.131,9.568,0.064,14.141c0.077,1.798,0.885,3.564,1.359,5.346c1.268-1.036,2.507-2.111,3.815-3.094
		c0.765-0.573,1.641-0.999,2.546-1.538C209.653,50.496,213.502,42.753,203.666,40.846z"/>
</g>
</svg>
