<?xml version="1.0" encoding="utf-8"?>
<!-- Generator: Adobe Illustrator 16.0.3, SVG Export Plug-In . SVG Version: 6.00 Build 0)  -->
<!DOCTYPE svg PUBLIC "-//W3C//DTD SVG 1.1//EN" "http://www.w3.org/Graphics/SVG/1.1/DTD/svg11.dtd">
<svg version="1.1" id="Layer_1" xmlns:serif="http://www.serif.com/"
	 xmlns="http://www.w3.org/2000/svg" xmlns:xlink="http://www.w3.org/1999/xlink" x="0px" y="0px" width="47px" height="47px"
	 viewBox="0 0 47 47" enable-background="new 0 0 47 47" xml:space="preserve">
<g id="knobLDark">
	<path id="path3832" stroke="#290303" stroke-width="1" fill="#611b00" d="M23.521,45.109c-7.674,0-3.302,3.899-10.224,0.498c-6.922-3.403-1.202-2.342-5.997-8.502
		c-4.795-6.158-5.059-0.201-6.763-7.826c-1.704-7.625,1.043-2.42,2.76-10.046c1.718-7.626-2.998-4.102,1.797-10.221
		c4.795-6.12,2.51-0.673,9.432-4.035C21.447,1.614,15.847,0,23.521,0c7.674,0,2.086,1.574,8.997,4.977
		c6.908,3.402,4.635-2.045,9.432,4.035c4.795,6.078,0.078,2.689,1.796,10.26c1.717,7.572,4.465,2.422,2.761,10.048
		c-1.704,7.625-1.982,1.707-6.763,7.826c-4.782,6.119,0.924,5.058-5.998,8.461C26.824,49.009,31.195,45.109,23.521,45.109z"/>
	<path fill="none" stroke="rgb(255, 242, 205)" stroke-width="2.29" d="M23.521,23.5V0"/>
</g>
</svg>
